<?xml version="1.0" encoding="utf-8"?>
<!-- Generator: Adobe Illustrator 26.0.1, SVG Export Plug-In . SVG Version: 6.00 Build 0)  -->
<svg version="1.1" id="Layer_1" xmlns="http://www.w3.org/2000/svg" xmlns:xlink="http://www.w3.org/1999/xlink" x="0px" y="0px"
	 viewBox="0 0 1000 500" style="enable-background:new 0 0 1000 500;" xml:space="preserve">
<style type="text/css">
	.st0{fill-rule:evenodd;clip-rule:evenodd;fill:#59809A;}
	.st1{fill-rule:evenodd;clip-rule:evenodd;fill:#BFC5C1;}
	.st2{fill-rule:evenodd;clip-rule:evenodd;fill:#D7D8D3;}
	.st3{fill-rule:evenodd;clip-rule:evenodd;fill:#6098B3;}
	.st4{fill:#D7D8D3;}
	.st5{fill:#59809A;}
</style>
<g>
	<g>
		<path class="st0" d="M221.92,109.93l2.66,34.25l60.87-73.11l-63.53-55.54v22.54c0,0-189.35,26.97-197.15,247.02
			c0,0-0.35,144.45,136.46,183.31c0,0-71.34-44.19-78.79-119.78c0,0-31.41-173.02,136.82-238.5"/>
		<path class="st1" d="M306.57,159.08c0,0,31.32,34.82,55.05-18.61l6.83-35.29c0,0,23.56-49.38,68.54-15.04l-12.78,15.44
			c0,0-43.12-14.91-45.52,34.6c0,0-16.77,80.92-73.73,42.06L306.57,159.08z"/>
		<path class="st2" d="M129.11,254.55c0,0-36.2,152.61,81.63,209.4c0,0,146.93,58.21,212.95-159l2.84-83.05l-173.73,7.81v70.98
			l99.56-1.06c0,0-23.42,111.8-142.32,95.47C210.03,395.1,141.18,385.16,129.11,254.55z"/>
		<path class="st3" d="M285.45,221.9l-1.95-91.21c0,0,1.06-20.23,14.91-31.59c0,0,24.49-30.17,59.63-9.23
			c0,0,13.84,9.23,27.33,57.85c0,0,12.07,21.29,37.98-4.44l13.66,12.6c0,0-43.12,45.78-70.01,0.53c0,0-10.11-39.93-29.55-47.38
			c-19.43-7.45-30.08,19.17-30.08,19.17S315.44,224.83,285.45,221.9z"/>
	</g>
	<g>
		<g>
			<path class="st4" d="M508.18,283.7c-3.65,1.26-10.53,2.93-17.4,2.93c-9.52,0-16.39-2.38-21.19-6.99
				c-4.78-4.53-7.4-11.32-7.37-18.97c0.06-17.34,12.69-27.2,29.76-27.2c6.73,0,11.91,1.28,14.49,2.5l-2.46,9.44
				c-2.89-1.25-6.4-2.21-12.13-2.21c-9.82,0-17.29,5.52-17.29,16.86c0,10.76,6.79,17.07,16.44,17.07c2.67,0,4.82-0.31,5.77-0.74
				v-10.95h-8.06v-9.19h19.45V283.7z"/>
			<path class="st4" d="M517.4,234.68c3.62-0.61,8.73-1.1,15.91-1.1c7.23,0,12.46,1.41,15.95,4.21c3.34,2.59,5.53,6.94,5.53,12.05
				c0,5.11-1.65,9.46-4.76,12.34c-4.03,3.78-10.03,5.53-16.93,5.53c-1.56,0-2.96-0.1-4.02-0.27v18.66H517.4V234.68z M529.08,258.32
				c0.98,0.23,2.19,0.31,3.91,0.31c6.26,0,10.12-3.17,10.12-8.45c0-4.8-3.28-7.65-9.22-7.65c-2.33,0-3.95,0.19-4.81,0.39V258.32z"/>
			<path class="st4" d="M600.57,284.67c-2.11,1.04-7.05,2.25-13.32,2.25c-18.05,0-27.35-11.28-27.35-26.14
				c0-17.77,12.74-27.61,28.47-27.61c6.13,0,10.78,1.19,12.83,2.31l-2.4,9.32c-2.34-1.02-5.69-1.96-9.9-1.96
				c-9.3,0-16.59,5.67-16.59,17.25c0,10.45,6.16,17.01,16.65,17.01c3.61,0,7.52-0.71,9.85-1.69L600.57,284.67z"/>
			<path class="st5" d="M624.36,273.95c3.12,1.67,8.02,3.27,13.06,3.27c5.41,0,8.28-2.25,8.28-5.68c0-3.2-2.49-5.09-8.73-7.29
				c-8.7-3.08-14.38-7.82-14.38-15.44c0-8.89,7.46-15.64,19.72-15.64c5.94,0,10.23,1.18,13.31,2.62l-2.6,9.45
				c-2.07-0.99-5.82-2.47-10.88-2.47c-5.13,0-7.58,2.38-7.58,5.04c0,3.31,2.89,4.77,9.65,7.33c9.23,3.45,13.5,8.24,13.5,15.61
				c0,8.7-6.66,16.17-21.01,16.17c-5.91,0-11.82-1.61-14.72-3.24L624.36,273.95z"/>
			<path class="st5" d="M713.4,259.53c0,17.1-10.32,27.43-25.56,27.43c-15.46,0-24.55-11.69-24.55-26.56
				c0-15.58,10.02-27.27,25.37-27.27C704.66,233.14,713.4,245.11,713.4,259.53z M675.75,260.18c0,10.21,4.81,17.41,12.68,17.41
				c7.97,0,12.52-7.53,12.52-17.66c0-9.4-4.44-17.42-12.55-17.42C680.42,242.51,675.75,250.05,675.75,260.18z"/>
			<path class="st5" d="M721.19,233.99h11.78v42.24h20.74v9.88h-32.52V233.99z"/>
			<path class="st5" d="M772.42,233.99v29.98c0,9,3.46,13.6,9.44,13.6c6.19,0,9.59-4.36,9.59-13.6v-29.98h11.78v29.25
				c0,16.08-8.13,23.72-21.77,23.72c-13.16,0-20.83-7.3-20.83-23.86v-29.11H772.42z"/>
			<path class="st5" d="M823.51,243.88h-14.07v-9.89h40.12v9.89H835.3v42.23h-11.78V243.88z"/>
			<path class="st5" d="M867.62,233.99v52.12h-11.78v-52.12H867.62z"/>
			<path class="st5" d="M925.54,259.53c0,17.1-10.32,27.43-25.56,27.43c-15.46,0-24.55-11.69-24.55-26.56
				c0-15.58,10.02-27.27,25.37-27.27C916.8,233.14,925.54,245.11,925.54,259.53z M887.89,260.18c0,10.21,4.81,17.41,12.68,17.41
				c7.97,0,12.52-7.53,12.52-17.66c0-9.4-4.44-17.42-12.55-17.42C892.55,242.51,887.89,250.05,887.89,260.18z"/>
			<path class="st5" d="M933.32,286.11v-52.12h13.73l10.82,19.12c3.12,5.46,6.17,11.99,8.52,17.88l0.2-0.02
				c-0.72-6.89-0.95-13.9-0.95-21.78v-15.2h10.82v52.12h-12.35l-11.17-20.07c-3.11-5.62-6.53-12.3-9.06-18.41l-0.26,0.02
				c0.36,6.91,0.51,14.28,0.51,22.79v15.67H933.32z"/>
		</g>
	</g>
</g>
</svg>
